<svg xmlns="http://www.w3.org/2000/svg" xmlns:xlink="http://www.w3.org/1999/xlink" version="1.1" id="layer" x="0px" y="0px" style="enable-background:new 0 0 652 652;" xml:space="preserve" viewBox="22.4 233.2 600.1 176.4">
<style type="text/css">
	.st0{fill:#131718;}
	.st1{fill:#30BA9D;}
	.st2{fill:#1A9F83;}
</style>
<path class="st0" d="M242.1,354.2c0,0,10.5,12.3,25.7,12.3c9.6,0,17.6-5.8,17.6-15.2c0-21.5-49.5-18.1-49.5-50.1  c0-15.4,13.5-27.4,32.8-27.4c10.9,0,29.2,4.9,29.2,18.9v8.4h-13.4v-4.8c0-5.4-7.7-9.3-15.8-9.3c-11,0-18,6.1-18,13.8  c0,20.8,49.4,16.1,49.4,49.8c0,15.7-12.2,29.2-32.5,29.2c-13,0-25.3-5.6-34-15.2L242.1,354.2z M323.2,396.3  c5.7,0,10.2-4.1,12.9-10.6l3.3-8l-25.1-58.2c-1-2.3-2.3-2.9-4.6-2.9H308v-12.1h8.3c5.9,0,8.1,1.6,10.5,7.4l16.7,41.4  c1.1,2.9,1.9,5.8,2.6,8.8h0.3c0.6-3,1.4-6,2.5-8.8L364,312c2.2-5.8,4.8-7.4,10.7-7.4h8.4v12.1h-1.9c-2.3,0-3.6,0.6-4.7,2.9l-29,71.7  c-4.5,11.3-13.3,17.3-23.7,17.3c-6.5,0-12.7-2.6-17.3-7.3l5.8-10.2C312.5,391.2,317,396.3,323.2,396.3L323.2,396.3z M397.2,290.8  c0-2.2-1.2-3.2-3.2-3.2h-5.9v-12.1H402c6.5,0,9.3,2.8,9.3,9.3v77.9c0,2.2,1.1,3.2,3.2,3.2h5.9v12h-13.9c-6.5,0-9.3-2.8-9.3-9.3  L397.2,290.8z M441.2,319.8c0-2.2-1.2-3.2-3.2-3.2H432v-12.1h13.8c6.5,0,9.3,2.8,9.3,9.3v48.9c0,2.2,1.1,3.2,3.2,3.2h5.9v12h-13.8  c-6.5,0-9.3-2.8-9.3-9.3L441.2,319.8z M441.5,275.6h12.6v14.7h-12.6V275.6z M482.1,319.8c0-2.2-1.2-3.2-3.2-3.2h-6v-12.1h13.8  c6.7,0,9.4,2.8,9.4,9v34.8c0,10.2,2,18.3,13.6,18.3c15.1,0,23.9-13.2,23.9-27.7v-34.4h14.1v58.2c0,2.2,1.2,3.2,3.2,3.2h6v12h-13.5  c-6.2,0-9.3-2.9-9.3-8.1v-2.7c0-2.3,0.1-4.2,0.1-4.2H534c-3,7.3-12.4,16.9-27,16.9c-16.6,0-25-8.7-25-28.2V319.8z M573.3,357.4  c0,0,8.7,10.9,22.2,10.9c6.8,0,12.8-3,12.8-9.4c0-13.2-40.1-11.8-40.1-35.4c0-14.1,12.3-20.7,27.3-20.7c8.9,0,24.1,3,24.1,14.2v7  H607v-3.6c0-4.4-6.5-6.3-11-6.3c-8.3,0-13.6,2.9-13.6,8.7c0,13.9,40.1,10.9,40.1,35.4c0,13-11.6,21.5-27,21.5  c-19.6,0-29.3-12.9-29.3-12.9L573.3,357.4z M573.3,357.4"/>
<path class="st1" d="M46.9,336.5l35.3,70.6l65.2,0.1l15.7-22.2L46.9,336.5z M46.9,336.5"/>
<path class="st2" d="M22.4,344.3l47.5,65.1l77.5,0.1l15.7-24.4L22.4,344.3z M79.3,264.9l23.1,17.9l20.9-40.1l-7.1-4.5L79.3,264.9z   M79.3,264.9"/>
<path class="st1" d="M147.4,409.6L79.3,264.9l14.5-10.5l79.2,115.4L147.4,409.6z M109.7,243l44.3,35.8l-31.1-45.6L109.7,243z   M109.7,243"/>
</svg>